<svg width="16" height="16" viewBox="0 0 16 16" fill="none" xmlns="http://www.w3.org/2000/svg">
<path d="M14.8 8C15.4627 8 16.0092 8.54023 15.9102 9.19553C15.7352 10.353 15.3075 11.4631 14.6518 12.4446C13.7727 13.7602 12.5233 14.7855 11.0615 15.391C9.59966 15.9965 7.99113 16.155 6.43928 15.8463C4.88743 15.5376 3.46197 14.7757 2.34315 13.6569C1.22433 12.538 0.4624 11.1126 0.153718 9.56072C-0.154964 8.00887 0.00346269 6.40034 0.608964 4.93853C1.21446 3.47672 2.23985 2.22729 3.55544 1.34824C4.53689 0.692458 5.64697 0.264776 6.80447 0.0898289C7.45977 -0.00921403 8 0.537258 8 1.2C8 1.86274 7.45672 2.38714 6.80914 2.52808C6.12701 2.67654 5.47512 2.95201 4.88881 3.34377C3.96789 3.95911 3.25013 4.83371 2.82627 5.85697C2.40242 6.88024 2.29153 8.00621 2.5076 9.09251C2.72368 10.1788 3.25703 11.1766 4.0402 11.9598C4.82338 12.743 5.8212 13.2763 6.90749 13.4924C7.99379 13.7085 9.11976 13.5976 10.143 13.1737C11.1663 12.7499 12.0409 12.0321 12.6562 11.1112C13.048 10.5249 13.3235 9.87299 13.4719 9.19086C13.6129 8.54328 14.1373 8 14.8 8Z" fill="#5C5C5C"/>
</svg>
