<svg width="76" height="76" viewBox="0 0 76 76" fill="none" xmlns="http://www.w3.org/2000/svg">
<path d="M63.5312 33.25H42.75C40.8603 33.25 39.0481 32.4993 37.7119 31.1631C36.3757 29.8269 35.625 28.0147 35.625 26.125V5.34375C35.625 5.18628 35.5624 5.03526 35.4511 4.92391C35.3397 4.81256 35.1887 4.75 35.0312 4.75H21.375C18.8554 4.75 16.4391 5.75089 14.6575 7.53249C12.8759 9.31408 11.875 11.7304 11.875 14.25V61.75C11.875 64.2696 12.8759 66.6859 14.6575 68.4675C16.4391 70.2491 18.8554 71.25 21.375 71.25H54.625C57.1446 71.25 59.5609 70.2491 61.3425 68.4675C63.1241 66.6859 64.125 64.2696 64.125 61.75V33.8438C64.125 33.6863 64.0624 33.5353 63.9511 33.4239C63.8397 33.3126 63.6887 33.25 63.5312 33.25Z" fill="#D9D9D9"/>
<path d="M62.228 27.9939L40.8812 6.64712C40.8397 6.60585 40.7869 6.57778 40.7295 6.56643C40.672 6.55508 40.6125 6.56095 40.5584 6.58332C40.5043 6.60569 40.4581 6.64355 40.4254 6.69214C40.3928 6.74073 40.3752 6.79788 40.375 6.85642V26.1251C40.375 26.755 40.6252 27.3591 41.0706 27.8045C41.516 28.2499 42.1201 28.5001 42.75 28.5001H62.0187C62.0772 28.4998 62.1344 28.4823 62.183 28.4497C62.2315 28.417 62.2694 28.3708 62.2918 28.3167C62.3141 28.2626 62.32 28.2031 62.3087 28.1456C62.2973 28.0882 62.2692 28.0354 62.228 27.9939Z" fill="#D9D9D9"/>
<g clip-path="url(#clip0_2483_5825)">
<rect x="50" y="50" width="26" height="26" rx="13" fill="#0FB75C"/>
<path d="M68.1188 59.75L61.4562 66.1484L58.125 62.9492" stroke="white" stroke-width="3" stroke-linecap="round" stroke-linejoin="round"/>
</g>
<defs>
<clipPath id="clip0_2483_5825">
<rect width="26" height="26" fill="white" transform="translate(50 50)"/>
</clipPath>
</defs>
</svg>
